<svg width="400" height="400" viewBox="0 0 510 330" fill="none" xmlns="http://www.w3.org/2000/svg">
<path d="M271.084 325.534C262.372 334.868 244.118 323.978 236.08 317.367C240.229 260.453 263.772 151.838 320.089 186.686C390.485 230.246 381.151 249.304 374.15 260.194C368.55 268.906 351.333 262.268 343.425 257.86C348.092 260.972 361.316 274.973 348.481 287.419C338.836 299.242 317.496 288.197 308.032 281.196C314.255 288.586 321.567 299.865 311.922 312.31C302.276 324.756 280.678 309.718 271.084 300.643C273.418 303.754 282.363 317.367 271.084 325.534Z" fill="#FEDFB6"/>
<path d="M187.525 175.96C179.043 170.028 166.183 173.488 161.017 175.96L234.136 316.2C234.544 316.612 237.096 318.83 240.359 320.478C245.66 318.83 275.174 295.616 279.252 281.196C282.514 269.66 276.329 264.725 272.251 262.527C267.765 259.643 265.011 257.123 262.156 257.123C264.603 246.411 263.787 236.523 258.078 230.344C252.368 224.164 242.173 223.34 231.977 224.988C236.871 213.122 232.113 204.937 229.123 202.328C218.927 191.616 201.799 196.148 195.274 199.444C198.944 185.436 198.129 183.376 187.525 175.96Z" fill="#E9C18B"/>
<path d="M181.63 106.178C175.407 105.556 168.407 102.289 165.684 100.733C161.328 105.089 119.402 154.665 100.344 180.075C108.9 187.853 118.624 206.522 118.624 211.189C123.68 204.966 145.46 189.798 159.072 184.742C163.351 183.153 176.185 179.686 183.575 183.575C190.965 187.464 194.854 198.743 192.52 206.522C209.011 195.943 223.635 202.633 227.524 211.189C230.353 217.412 230.247 224.413 227.524 230.635C232.969 228.302 245.415 227.135 253.971 236.08C260.816 243.237 258.638 255.657 256.694 260.972C262.528 259.416 267.584 260.194 271.862 262.139C271.862 257.472 271.862 252.027 270.695 248.915C281.196 256.694 295.587 252.804 300.254 248.915C304.921 245.026 308.421 237.247 304.532 224.413C315.811 229.08 324.757 222.079 327.479 216.634C330.202 211.189 333.313 194.465 316.589 185.52C299.865 176.574 269.528 142.737 264.861 138.07C260.194 133.403 239.192 133.403 232.191 140.015C224.024 140.793 212.745 153.627 185.52 157.906C163.744 161.327 161.148 150.78 159.074 142.354L159.072 142.348C157.517 136.126 208.855 106.567 216.634 103.844C210.8 101.122 189.409 106.956 181.63 106.178Z" fill="#FFE4C0"/>
<path d="M311.144 101.122C324.834 101.744 337.332 93.0841 341.869 88.6763C367.798 119.92 400.209 169.185 411.877 184.742C403.32 188.242 377.262 215.078 370.65 227.524C365.983 222.079 330.59 194.076 311.144 184.742C295.587 177.274 277.696 148.571 263.306 139.626C249.304 133.792 235.303 136.919 227.913 142.349C189.798 170.352 183.186 164.907 173.074 162.962C161.017 159.461 151.294 150.905 153.238 142.349C155.183 133.792 168.018 131.459 194.076 114.346C220.134 97.2327 234.136 97.2327 253.193 91.7877C272.251 86.3427 294.031 100.344 311.144 101.122Z" fill="#EEC48A"/>
<path d="M94.1212 190.964C91.7876 191.742 83.6201 182.408 83.6201 182.408L161.017 84.7865C161.017 84.7865 169.963 90.6205 170.351 93.7319C170.74 96.8434 96.4548 190.187 94.1212 190.964Z" fill="white"/>
<path d="M336.036 80.5083C335.647 77.008 348.87 73.1187 348.87 73.1187L428.99 177.741C428.99 177.741 419.267 190.187 414.988 189.798C410.71 189.409 336.425 84.0087 336.036 80.5083Z" fill="white"/>
<path d="M169.962 73.5076C169.184 67.2847 111.623 25.5396 82.0642 4.66699C44.7269 30.4919 11.7975 103.326 0 136.514C22.169 156.35 68.4517 192.52 75.0635 192.52C81.6753 192.52 170.74 79.7304 169.962 73.5076Z" fill="#28C797"/>
<path d="M344.592 66.507C344.592 59.8952 402.024 18.7983 430.545 0C477.217 37.3373 502.368 105.011 509.109 134.181C509.109 134.181 437.546 180.852 430.545 180.463C423.545 180.075 344.592 73.1188 344.592 66.507Z" fill="#ECC367"/>
<path d="M110.456 237.247C107.949 232.969 105.944 217.489 119.013 208.466C135.348 197.187 156.739 183.963 163.351 183.185C169.962 182.407 178.224 183.791 183.964 190.575C187.948 195.284 190.246 205.728 185.201 211.853C188.21 208.909 193.768 204.483 199.132 203.41C206.911 201.854 215.467 203.799 218.968 208.466C222.468 213.133 231.413 222.468 218.968 238.414C230.247 229.468 241.137 229.857 246.971 238.414C250.663 241.979 255.132 252.649 244.085 267.181C248.754 261.872 262.391 259.351 267.584 266.028C273.677 270.565 279.174 284.541 252.416 304.143C218.968 328.645 208.855 326.347 203.41 321.645C196.41 315.599 200.299 304.143 205.355 297.92C199.132 301.031 179.999 315.033 168.407 304.143C164.128 300.124 158.995 288.041 172.685 271.862C168.407 274.584 149.349 290.53 134.959 278.085C126.402 269.139 127.569 253.971 143.126 243.081C132.625 250.432 116.84 248.137 110.456 237.247Z" fill="#EEC48A"/>
</svg>
