<svg width="800" height="850" viewBox="0 0 890 1107" fill="none" xmlns="http://www.w3.org/2000/svg">
<line x1="293.616" y1="413.675" x2="360.211" y2="501.903" stroke="white"/>
<line x1="139.218" y1="530.215" x2="205.813" y2="618.443" stroke="white"/>
<line y1="-0.5" x2="116.741" y2="-0.5" transform="matrix(0.998365 -0.0571578 -0.328621 0.944462 177.293 421.409)" stroke="white"/>
<line y1="-0.5" x2="116.741" y2="-0.5" transform="matrix(0.998365 -0.0571578 -0.328621 0.944462 205.414 618.745)" stroke="white"/>
<line y1="-0.5" x2="116.741" y2="-0.5" transform="matrix(0.328621 -0.944462 0.998365 -0.0571578 140.893 530.186)" stroke="white"/>
<line x1="116.604" y1="536.465" x2="174.875" y2="613.665" stroke="white"/>
<line y1="-0.5" x2="101.715" y2="-0.5" transform="matrix(0.328621 -0.944462 0.998365 -0.0571578 117.9 537.076)" stroke="white"/>
<line y1="-0.5" x2="116.741" y2="-0.5" transform="matrix(0.328621 -0.944462 0.998365 -0.0571578 322.962 611.319)" stroke="white"/>
<line x1="284.24" y1="222.829" x2="173.787" y2="227.196" stroke="white"/>
<line x1="352.315" y1="316.428" x2="293.689" y2="413.837" stroke="white"/>
<line y1="-0.5" x2="116.741" y2="-0.5" transform="matrix(-0.522571 0.852596 -0.588256 -0.808675 173.767 226.697)" stroke="white"/>
<line y1="-0.5" x2="116.741" y2="-0.5" transform="matrix(0.588256 0.808675 -0.522571 0.852596 283.31 224.223)" stroke="white"/>
<line x1="113.222" y1="327.195" x2="178.708" y2="421.132" stroke="white"/>
<line x1="475.911" y1="494.639" x2="538.731" y2="577.865" stroke="white"/>
<line x1="321.508" y1="611.173" x2="389.481" y2="698.36" stroke="white"/>
<line y1="-0.5" x2="116.741" y2="-0.5" transform="matrix(0.998365 -0.0571578 -0.328621 0.944462 359.363 502.543)" stroke="white"/>
<line x1="389.063" y1="698.17" x2="504.01" y2="692.707" stroke="white"/>
<line x1="504.552" y1="692.309" x2="538.865" y2="577.259" stroke="white"/>
<line x1="544.592" y1="748.289" x2="504.905" y2="692.289" stroke="white"/>
<line x1="135.416" y1="321.723" x2="190.066" y2="403.882" stroke="white"/>
<circle cx="559.493" cy="763.493" r="20.9931" stroke="white"/>
<line x1="512.5" y1="51" x2="512.5" y2="413" stroke="white"/>
<line x1="536.5" y1="123" x2="536.5" y2="485" stroke="white"/>
<line x1="58.5001" y1="617" x2="58.5001" y2="979" stroke="white"/>
</svg>
