<svg width="110" height="550" viewBox="0 0 132 683" fill="none" xmlns="http://www.w3.org/2000/svg">
<circle cx="117.5" cy="14.5" r="14.5" fill="#BFFFE0" fill-opacity="0.66"/>
<circle cx="117.5" cy="14.5" r="14.5" fill="#BFFFE0" fill-opacity="0.66"/>
<circle cx="117.5" cy="14.5" r="14.5" fill="#BFFFE0" fill-opacity="0.66"/>
<circle cx="117.5" cy="14.5" r="14.5" fill="#BFFFE0" fill-opacity="0.66"/>
<circle cx="117.5" cy="14.5" r="14.5" fill="#BFFFE0" fill-opacity="0.66"/>
<circle cx="117.5" cy="14.5" r="14.5" fill="#BFFFE0" fill-opacity="0.66"/>
<circle cx="117.5" cy="14.5" r="14.5" fill="#BFFFE0" fill-opacity="0.66"/>
<circle cx="117.5" cy="14.5" r="14.5" fill="#BFFFE0" fill-opacity="0.66"/>
<circle cx="14.5" cy="376.5" r="14.5" fill="#BFFFE0" fill-opacity="0.66"/>
<circle cx="14.5" cy="376.5" r="14.5" fill="#BFFFE0" fill-opacity="0.66"/>
<circle cx="14.5" cy="376.5" r="14.5" fill="#BFFFE0" fill-opacity="0.66"/>
<circle cx="14.5" cy="376.5" r="14.5" fill="#BFFFE0" fill-opacity="0.66"/>
<circle cx="14.5" cy="376.5" r="14.5" fill="#BFFFE0" fill-opacity="0.66"/>
<circle cx="14.5" cy="376.5" r="14.5" fill="#BFFFE0" fill-opacity="0.66"/>
<circle cx="14.5" cy="376.5" r="14.5" fill="#BFFFE0" fill-opacity="0.66"/>
<circle cx="14.5" cy="376.5" r="14.5" fill="#BFFFE0" fill-opacity="0.66"/>
<circle cx="14.5" cy="327.5" r="14.5" fill="#BFFFE0" fill-opacity="0.66"/>
<circle cx="14.5" cy="327.5" r="14.5" fill="#BFFFE0" fill-opacity="0.66"/>
<circle cx="14.5" cy="327.5" r="14.5" fill="#BFFFE0" fill-opacity="0.66"/>
<circle cx="14.5" cy="327.5" r="14.5" fill="#BFFFE0" fill-opacity="0.66"/>
<circle cx="14.5" cy="327.5" r="14.5" fill="#BFFFE0" fill-opacity="0.66"/>
<circle cx="14.5" cy="327.5" r="14.5" fill="#BFFFE0" fill-opacity="0.66"/>
<circle cx="14.5" cy="327.5" r="14.5" fill="#BFFFE0" fill-opacity="0.66"/>
<circle cx="14.5" cy="327.5" r="14.5" fill="#BFFFE0" fill-opacity="0.66"/>
<circle cx="14.5" cy="278.5" r="14.5" fill="#BFFFE0" fill-opacity="0.66"/>
<circle cx="14.5" cy="278.5" r="14.5" fill="#BFFFE0" fill-opacity="0.66"/>
<circle cx="14.5" cy="278.5" r="14.5" fill="#BFFFE0" fill-opacity="0.66"/>
<circle cx="14.5" cy="278.5" r="14.5" fill="#BFFFE0" fill-opacity="0.66"/>
<circle cx="14.5" cy="278.5" r="14.5" fill="#BFFFE0" fill-opacity="0.66"/>
<circle cx="14.5" cy="278.5" r="14.5" fill="#BFFFE0" fill-opacity="0.66"/>
<circle cx="14.5" cy="278.5" r="14.5" fill="#BFFFE0" fill-opacity="0.66"/>
<circle cx="14.5" cy="278.5" r="14.5" fill="#BFFFE0" fill-opacity="0.66"/>
<circle cx="14.5" cy="180.5" r="14.5" fill="#BFFFE0" fill-opacity="0.66"/>
<circle cx="14.5" cy="180.5" r="14.5" fill="#BFFFE0" fill-opacity="0.66"/>
<circle cx="14.5" cy="180.5" r="14.5" fill="#BFFFE0" fill-opacity="0.66"/>
<circle cx="14.5" cy="180.5" r="14.5" fill="#BFFFE0" fill-opacity="0.66"/>
<circle cx="14.5" cy="180.5" r="14.5" fill="#BFFFE0" fill-opacity="0.66"/>
<circle cx="14.5" cy="180.5" r="14.5" fill="#BFFFE0" fill-opacity="0.66"/>
<circle cx="14.5" cy="180.5" r="14.5" fill="#BFFFE0" fill-opacity="0.66"/>
<circle cx="14.5" cy="180.5" r="14.5" fill="#BFFFE0" fill-opacity="0.66"/>
<circle cx="14.5" cy="229.5" r="14.5" fill="#BFFFE0" fill-opacity="0.66"/>
<circle cx="14.5" cy="229.5" r="14.5" fill="#BFFFE0" fill-opacity="0.66"/>
<circle cx="14.5" cy="229.5" r="14.5" fill="#BFFFE0" fill-opacity="0.66"/>
<circle cx="14.5" cy="229.5" r="14.5" fill="#BFFFE0" fill-opacity="0.66"/>
<circle cx="14.5" cy="229.5" r="14.5" fill="#BFFFE0" fill-opacity="0.66"/>
<circle cx="14.5" cy="229.5" r="14.5" fill="#BFFFE0" fill-opacity="0.66"/>
<circle cx="14.5" cy="229.5" r="14.5" fill="#BFFFE0" fill-opacity="0.66"/>
<circle cx="14.5" cy="229.5" r="14.5" fill="#BFFFE0" fill-opacity="0.66"/>
<circle cx="14.5" cy="82.5" r="14.5" fill="#BFFFE0" fill-opacity="0.66"/>
<circle cx="14.5" cy="82.5" r="14.5" fill="#BFFFE0" fill-opacity="0.66"/>
<circle cx="14.5" cy="82.5" r="14.5" fill="#BFFFE0" fill-opacity="0.66"/>
<circle cx="14.5" cy="82.5" r="14.5" fill="#BFFFE0" fill-opacity="0.66"/>
<circle cx="14.5" cy="82.5" r="14.5" fill="#BFFFE0" fill-opacity="0.66"/>
<circle cx="14.5" cy="82.5" r="14.5" fill="#BFFFE0" fill-opacity="0.66"/>
<circle cx="14.5" cy="82.5" r="14.5" fill="#BFFFE0" fill-opacity="0.66"/>
<circle cx="14.5" cy="82.5" r="14.5" fill="#BFFFE0" fill-opacity="0.66"/>
<circle cx="14.5" cy="131.5" r="14.5" fill="#BFFFE0" fill-opacity="0.66"/>
<circle cx="14.5" cy="131.5" r="14.5" fill="#BFFFE0" fill-opacity="0.66"/>
<circle cx="14.5" cy="131.5" r="14.5" fill="#BFFFE0" fill-opacity="0.66"/>
<circle cx="14.5" cy="131.5" r="14.5" fill="#BFFFE0" fill-opacity="0.66"/>
<circle cx="14.5" cy="131.5" r="14.5" fill="#BFFFE0" fill-opacity="0.66"/>
<circle cx="14.5" cy="131.5" r="14.5" fill="#BFFFE0" fill-opacity="0.66"/>
<circle cx="14.5" cy="131.5" r="14.5" fill="#BFFFE0" fill-opacity="0.66"/>
<circle cx="14.5" cy="131.5" r="14.5" fill="#BFFFE0" fill-opacity="0.66"/>
<circle cx="68.5" cy="14.5" r="14.5" fill="#BFFFE0" fill-opacity="0.66"/>
<circle cx="68.5" cy="14.5" r="14.5" fill="#BFFFE0" fill-opacity="0.66"/>
<circle cx="68.5" cy="14.5" r="14.5" fill="#BFFFE0" fill-opacity="0.66"/>
<circle cx="68.5" cy="14.5" r="14.5" fill="#BFFFE0" fill-opacity="0.66"/>
<circle cx="68.5" cy="14.5" r="14.5" fill="#BFFFE0" fill-opacity="0.66"/>
<circle cx="68.5" cy="14.5" r="14.5" fill="#BFFFE0" fill-opacity="0.66"/>
<circle cx="68.5" cy="14.5" r="14.5" fill="#BFFFE0" fill-opacity="0.66"/>
<circle cx="68.5" cy="14.5" r="14.5" fill="#BFFFE0" fill-opacity="0.66"/>
<path d="M43 38.5C43 46.5081 36.5081 53 28.5 53C20.4919 53 14 46.5081 14 38.5C14 30.4919 20.4919 24 28.5 24C36.5081 24 43 30.4919 43 38.5Z" fill="#BFFFE0" fill-opacity="0.66"/>
<path d="M43 38.5C43 46.5081 36.5081 53 28.5 53C20.4919 53 14 46.5081 14 38.5C14 30.4919 20.4919 24 28.5 24C36.5081 24 43 30.4919 43 38.5Z" fill="#BFFFE0" fill-opacity="0.66"/>
<path d="M43 38.5C43 46.5081 36.5081 53 28.5 53C20.4919 53 14 46.5081 14 38.5C14 30.4919 20.4919 24 28.5 24C36.5081 24 43 30.4919 43 38.5Z" fill="#BFFFE0" fill-opacity="0.66"/>
<path d="M43 38.5C43 46.5081 36.5081 53 28.5 53C20.4919 53 14 46.5081 14 38.5C14 30.4919 20.4919 24 28.5 24C36.5081 24 43 30.4919 43 38.5Z" fill="#BFFFE0" fill-opacity="0.66"/>
<path d="M43 38.5C43 46.5081 36.5081 53 28.5 53C20.4919 53 14 46.5081 14 38.5C14 30.4919 20.4919 24 28.5 24C36.5081 24 43 30.4919 43 38.5Z" fill="#BFFFE0" fill-opacity="0.66"/>
<path d="M43 38.5C43 46.5081 36.5081 53 28.5 53C20.4919 53 14 46.5081 14 38.5C14 30.4919 20.4919 24 28.5 24C36.5081 24 43 30.4919 43 38.5Z" fill="#BFFFE0" fill-opacity="0.66"/>
<path d="M43 38.5C43 46.5081 36.5081 53 28.5 53C20.4919 53 14 46.5081 14 38.5C14 30.4919 20.4919 24 28.5 24C36.5081 24 43 30.4919 43 38.5Z" fill="#BFFFE0" fill-opacity="0.66"/>
<path d="M43 38.5C43 46.5081 36.5081 53 28.5 53C20.4919 53 14 46.5081 14 38.5C14 30.4919 20.4919 24 28.5 24C36.5081 24 43 30.4919 43 38.5Z" fill="#BFFFE0" fill-opacity="0.66"/>
<circle cx="14.5" cy="425.5" r="14.5" fill="#BFFFE0" fill-opacity="0.66"/>
<circle cx="14.5" cy="425.5" r="14.5" fill="#BFFFE0" fill-opacity="0.66"/>
<circle cx="14.5" cy="425.5" r="14.5" fill="#BFFFE0" fill-opacity="0.66"/>
<circle cx="14.5" cy="425.5" r="14.5" fill="#BFFFE0" fill-opacity="0.66"/>
<circle cx="14.5" cy="425.5" r="14.5" fill="#BFFFE0" fill-opacity="0.66"/>
<circle cx="14.5" cy="425.5" r="14.5" fill="#BFFFE0" fill-opacity="0.66"/>
<circle cx="14.5" cy="425.5" r="14.5" fill="#BFFFE0" fill-opacity="0.66"/>
<circle cx="14.5" cy="425.5" r="14.5" fill="#BFFFE0" fill-opacity="0.66"/>
<circle cx="93.5" cy="668.5" r="14.5" fill="#BFFFE0" fill-opacity="0.66"/>
<circle cx="93.5" cy="668.5" r="14.5" fill="#BFFFE0" fill-opacity="0.66"/>
<circle cx="93.5" cy="668.5" r="14.5" fill="#BFFFE0" fill-opacity="0.66"/>
<circle cx="93.5" cy="668.5" r="14.5" fill="#BFFFE0" fill-opacity="0.66"/>
<circle cx="93.5" cy="668.5" r="14.5" fill="#BFFFE0" fill-opacity="0.66"/>
<circle cx="93.5" cy="668.5" r="14.5" fill="#BFFFE0" fill-opacity="0.66"/>
<circle cx="93.5" cy="668.5" r="14.5" fill="#BFFFE0" fill-opacity="0.66"/>
<circle cx="93.5" cy="668.5" r="14.5" fill="#BFFFE0" fill-opacity="0.66"/>
<circle cx="14.5" cy="621.5" r="14.5" fill="#BFFFE0" fill-opacity="0.66"/>
<circle cx="14.5" cy="621.5" r="14.5" fill="#BFFFE0" fill-opacity="0.66"/>
<circle cx="14.5" cy="621.5" r="14.5" fill="#BFFFE0" fill-opacity="0.66"/>
<circle cx="14.5" cy="621.5" r="14.5" fill="#BFFFE0" fill-opacity="0.66"/>
<circle cx="14.5" cy="621.5" r="14.5" fill="#BFFFE0" fill-opacity="0.66"/>
<circle cx="14.5" cy="621.5" r="14.5" fill="#BFFFE0" fill-opacity="0.66"/>
<circle cx="14.5" cy="621.5" r="14.5" fill="#BFFFE0" fill-opacity="0.66"/>
<circle cx="14.5" cy="621.5" r="14.5" fill="#BFFFE0" fill-opacity="0.66"/>
<circle cx="43.5" cy="660.5" r="14.5" fill="#BFFFE0" fill-opacity="0.66"/>
<circle cx="43.5" cy="660.5" r="14.5" fill="#BFFFE0" fill-opacity="0.66"/>
<circle cx="43.5" cy="660.5" r="14.5" fill="#BFFFE0" fill-opacity="0.66"/>
<circle cx="43.5" cy="660.5" r="14.5" fill="#BFFFE0" fill-opacity="0.66"/>
<circle cx="43.5" cy="660.5" r="14.5" fill="#BFFFE0" fill-opacity="0.66"/>
<circle cx="43.5" cy="660.5" r="14.5" fill="#BFFFE0" fill-opacity="0.66"/>
<circle cx="43.5" cy="660.5" r="14.5" fill="#BFFFE0" fill-opacity="0.66"/>
<circle cx="43.5" cy="660.5" r="14.5" fill="#BFFFE0" fill-opacity="0.66"/>
<circle cx="14.5" cy="572.5" r="14.5" fill="#BFFFE0" fill-opacity="0.66"/>
<circle cx="14.5" cy="572.5" r="14.5" fill="#BFFFE0" fill-opacity="0.66"/>
<circle cx="14.5" cy="572.5" r="14.5" fill="#BFFFE0" fill-opacity="0.66"/>
<circle cx="14.5" cy="572.5" r="14.5" fill="#BFFFE0" fill-opacity="0.66"/>
<circle cx="14.5" cy="572.5" r="14.5" fill="#BFFFE0" fill-opacity="0.66"/>
<circle cx="14.5" cy="572.5" r="14.5" fill="#BFFFE0" fill-opacity="0.66"/>
<circle cx="14.5" cy="572.5" r="14.5" fill="#BFFFE0" fill-opacity="0.66"/>
<circle cx="14.5" cy="572.5" r="14.5" fill="#BFFFE0" fill-opacity="0.66"/>
<circle cx="14.5" cy="474.5" r="14.5" fill="#BFFFE0" fill-opacity="0.66"/>
<circle cx="14.5" cy="474.5" r="14.5" fill="#BFFFE0" fill-opacity="0.66"/>
<circle cx="14.5" cy="474.5" r="14.5" fill="#BFFFE0" fill-opacity="0.66"/>
<circle cx="14.5" cy="474.5" r="14.5" fill="#BFFFE0" fill-opacity="0.66"/>
<circle cx="14.5" cy="474.5" r="14.5" fill="#BFFFE0" fill-opacity="0.66"/>
<circle cx="14.5" cy="474.5" r="14.5" fill="#BFFFE0" fill-opacity="0.66"/>
<circle cx="14.5" cy="474.5" r="14.5" fill="#BFFFE0" fill-opacity="0.66"/>
<circle cx="14.5" cy="474.5" r="14.5" fill="#BFFFE0" fill-opacity="0.66"/>
<circle cx="14.5" cy="425.5" r="14.5" fill="#BFFFE0" fill-opacity="0.66"/>
<circle cx="14.5" cy="425.5" r="14.5" fill="#BFFFE0" fill-opacity="0.66"/>
<circle cx="14.5" cy="425.5" r="14.5" fill="#BFFFE0" fill-opacity="0.66"/>
<circle cx="14.5" cy="425.5" r="14.5" fill="#BFFFE0" fill-opacity="0.66"/>
<circle cx="14.5" cy="425.5" r="14.5" fill="#BFFFE0" fill-opacity="0.66"/>
<circle cx="14.5" cy="425.5" r="14.5" fill="#BFFFE0" fill-opacity="0.66"/>
<circle cx="14.5" cy="425.5" r="14.5" fill="#BFFFE0" fill-opacity="0.66"/>
<circle cx="14.5" cy="425.5" r="14.5" fill="#BFFFE0" fill-opacity="0.66"/>
<circle cx="14.5" cy="523.5" r="14.5" fill="#BFFFE0" fill-opacity="0.66"/>
<circle cx="14.5" cy="523.5" r="14.5" fill="#BFFFE0" fill-opacity="0.66"/>
<circle cx="14.5" cy="523.5" r="14.5" fill="#BFFFE0" fill-opacity="0.66"/>
<circle cx="14.5" cy="523.5" r="14.5" fill="#BFFFE0" fill-opacity="0.66"/>
<circle cx="14.5" cy="523.5" r="14.5" fill="#BFFFE0" fill-opacity="0.66"/>
<circle cx="14.5" cy="523.5" r="14.5" fill="#BFFFE0" fill-opacity="0.66"/>
<circle cx="14.5" cy="523.5" r="14.5" fill="#BFFFE0" fill-opacity="0.66"/>
<circle cx="14.5" cy="523.5" r="14.5" fill="#BFFFE0" fill-opacity="0.66"/>
</svg>
