<svg width="600" height="800" viewBox="0 0 725 938" fill="none" xmlns="http://www.w3.org/2000/svg">
<line x1="225.226" y1="311.712" x2="311.198" y2="311.712" stroke="white"/>
<line y1="-0.5" x2="90.419" y2="-0.5" transform="matrix(0.526375 0.850253 -0.813918 0.58098 178.21 235.731)" stroke="white"/>
<line y1="-0.5" x2="85.9743" y2="-0.5" transform="matrix(0.999842 0.0177512 -0.0153961 0.999881 496.576 312.181)" stroke="white"/>
<line x1="225.226" y1="462.164" x2="311.198" y2="462.164" stroke="white"/>
<line y1="-0.5" x2="90.7953" y2="-0.5" transform="matrix(0.555848 -0.831284 0.555848 0.831284 175.523 387.657)" stroke="white"/>
<line y1="-0.5" x2="90.7953" y2="-0.5" transform="matrix(0.555848 -0.831284 0.555848 0.831284 311.198 462.664)" stroke="white"/>
<line y1="-0.5" x2="90.7953" y2="-0.5" transform="matrix(-0.555848 -0.831284 0.555848 -0.831284 225.991 461.221)" stroke="white"/>
<line x1="218.509" y1="479.13" x2="293.735" y2="479.13" stroke="white"/>
<line y1="-0.5" x2="79.1087" y2="-0.5" transform="matrix(-0.555848 -0.831284 0.555848 -0.831284 219.495 478.723)" stroke="white"/>
<line y1="-0.5" x2="90.7953" y2="-0.5" transform="matrix(-0.555848 -0.831284 0.555848 -0.831284 361.667 386.214)" stroke="white"/>
<line x1="360.901" y1="236.486" x2="426.724" y2="236.486" stroke="white"/>
<line x1="360.893" y1="386.938" x2="446.866" y2="385.595" stroke="white"/>
<line y1="-0.5" x2="90.7953" y2="-0.5" transform="matrix(0.555848 -0.831284 0.555848 0.831284 311.198 312.65)" stroke="white"/>
<line x1="446.461" y1="385.813" x2="496.929" y2="311.898" stroke="white"/>
<line x1="496.931" y1="311.493" x2="458.552" y2="256.077" stroke="white"/>
<circle cx="171.493" cy="215.493" r="20.9931" stroke="white"/>
<circle cx="604.042" cy="313.556" r="20.9931" stroke="white"/>
<circle cx="448.217" cy="238.33" r="20.9931" stroke="white"/>
<line x1="366.265" y1="373.505" x2="441.491" y2="372.162" stroke="white"/>
<line x1="477.5" y1="555" x2="477.5" y2="938" stroke="white"/>
<line x1="582.5" y1="413" x2="582.5" y2="798" stroke="white"/>
<line x1="563.5" y1="596" x2="563.5" y2="863" stroke="white"/>
</svg>
