<svg width="400" height="600" viewBox="0 0 542 674" fill="none" xmlns="http://www.w3.org/2000/svg">
<line x1="116.703" y1="307.975" x2="202.675" y2="307.975" stroke="white"/>
<line x1="116.703" y1="458.427" x2="202.675" y2="458.427" stroke="white"/>
<line y1="-0.5" x2="90.7953" y2="-0.5" transform="matrix(0.555848 -0.831284 0.555848 0.831284 67 383.92)" stroke="white"/>
<line y1="-0.5" x2="90.7953" y2="-0.5" transform="matrix(0.555848 -0.831284 0.555848 0.831284 202.675 458.927)" stroke="white"/>
<line y1="-0.5" x2="90.7953" y2="-0.5" transform="matrix(-0.555848 -0.831284 0.555848 -0.831284 117.468 457.483)" stroke="white"/>
<line y1="-0.5" x2="90.7953" y2="-0.5" transform="matrix(0.555848 -0.831284 0.555848 0.831284 42 382.477)" stroke="white"/>
<line y1="-0.5" x2="90.7953" y2="-0.5" transform="matrix(-0.555848 -0.831284 0.555848 -0.831284 92.4683 456.04)" stroke="white"/>
<line y1="-0.5" x2="90.7953" y2="-0.5" transform="matrix(-0.555848 -0.831284 0.555848 -0.831284 253.144 382.477)" stroke="white"/>
<line x1="275.004" y1="232.5" x2="338.679" y2="232.975" stroke="white"/>
<line x1="252.703" y1="383.427" x2="338.675" y2="383.427" stroke="white"/>
<line x1="202.582" y1="308.646" x2="240.582" y2="250.726" stroke="white"/>
<line y1="-0.5" x2="90.7953" y2="-0.5" transform="matrix(0.555848 -0.831284 0.555848 0.831284 338.675 383.927)" stroke="white"/>
<line y1="-0.5" x2="90.7953" y2="-0.5" transform="matrix(-0.555848 -0.831284 0.555848 -0.831284 389.144 307.477)" stroke="white"/>
<circle cx="253.493" cy="233.493" r="20.9931" stroke="white"/>
<line x1="360.5" y1="434" x2="360.5" y2="595" stroke="white"/>
<line x1="377.5" y1="397" x2="377.5" y2="558" stroke="white"/>
<line x1="443.5" y1="-1.79545e-08" x2="443.5" y2="480" stroke="white"/>
</svg>
