<svg width="1000" height="900" viewBox="0 0 1117 1101" fill="none" xmlns="http://www.w3.org/2000/svg">
<path d="M509.076 1014.43C484.877 1051.41 428.787 1080.47 403.767 1090.38C520.839 1094.6 658.636 1076.62 686.644 1072.22C645.193 1056.81 622.226 1035.89 605.982 1014.43C589.738 992.965 606.542 941.232 616.625 919.218C626.708 897.204 649.674 866.935 661.997 838.866C674.321 810.798 678.242 757.964 677.681 743.655C677.121 729.346 681.602 691.371 686.644 667.156C691.685 642.94 725.294 624.779 735.937 614.322C746.58 603.865 739.858 589.005 738.738 575.797C737.618 562.588 742.099 549.93 746.58 542.776C751.061 535.621 772.907 559.286 785.231 559.286C797.554 559.286 790.832 538.373 794.193 532.319C797.554 526.265 810.998 545.527 825.001 542.776C839.005 540.024 831.723 529.567 834.524 522.963C837.325 516.359 855.25 526.265 862.531 526.815C869.813 527.366 873.735 525.164 877.095 518.56C880.456 511.956 868.133 504.251 855.25 505.902C842.366 507.553 835.644 499.848 830.043 495.996C824.441 492.143 833.404 475.632 830.043 471.23C826.682 466.827 819.4 471.78 813.798 471.23C808.197 470.679 816.599 464.625 800.355 460.223C784.11 455.82 786.351 441.51 790.832 430.503C795.313 419.496 816.599 410.691 816.599 401.335C816.599 391.979 802.595 390.878 794.193 396.381C785.791 401.885 772.907 417.295 757.223 430.503C741.539 443.712 721.373 430.503 722.494 417.295C723.614 404.086 738.738 405.187 765.065 382.072C791.392 358.957 806.516 361.159 825.001 367.763C843.486 374.367 826.682 396.381 825.001 405.187C823.321 413.993 841.246 419.496 839.565 430.503C837.885 441.51 845.727 450.316 855.25 441.51C864.772 432.705 881.016 433.805 885.498 441.51C889.979 449.215 858.05 469.579 881.016 475.632C903.983 481.686 919.107 470.129 926.949 465.726C934.791 461.323 943.753 436.007 962.799 450.316C981.844 464.625 967.28 492.693 962.799 507.003C958.317 521.312 923.588 520.211 919.107 533.42C914.626 546.628 924.708 545.527 939.272 558.736C953.836 571.944 956.077 582.401 971.761 582.401C987.445 582.401 994.167 558.736 1007.61 555.984C1021.05 553.232 1018.81 576.898 1030.02 582.401C1041.22 587.905 1044.02 569.193 1049.06 558.736C1054.1 548.279 1055.78 511.956 1070.35 500.949C1084.91 489.942 1100.6 487.19 1098.36 475.632C1096.11 464.075 1062.51 477.283 1074.27 457.471C1086.03 437.658 1082.67 426.101 1074.27 416.744C1065.87 407.388 1045.7 415.093 1041.78 413.993C1037.86 412.892 1041.78 406.838 1045.7 396.381C1048.84 388.016 1030.95 384.09 1021.61 383.173C1017.13 373.266 1067.86 367.763 1066.43 355.105C1065.87 350.152 1051.86 350.152 1044.02 355.105C1036.18 360.058 1026.1 360.058 1021.61 352.903C1017.13 345.749 1016.57 344.098 1007.61 345.198C998.648 346.299 990.806 345.749 990.806 327.587C990.806 309.425 1002.57 309.976 1026.1 301.17C1049.62 292.364 1045.14 283.008 1045.7 276.954C1046.26 270.901 1029.46 265.947 1026.1 260.444C1022.73 254.94 1030.58 242.832 1033.38 232.376C1036.18 221.919 1013.77 227.423 1007.61 226.322C1001.45 225.221 1002.57 214.214 1002.57 207.61C1002.57 201.006 1002.57 199.905 990.806 197.703C979.043 195.502 963.919 170.186 1002.57 171.837C1041.22 173.488 1046.26 166.333 1041.78 152.574C1037.3 138.815 1009.85 142.118 1002.57 137.715C995.287 133.312 1003.69 121.754 995.848 117.902C988.005 114.049 976.802 124.506 963.919 125.607C951.035 126.708 946.554 109.647 947.675 95.8878C948.795 82.1289 982.964 64.5176 986.325 56.8126C989.686 49.1077 1000.33 38.6509 982.964 38.6509C965.599 38.6509 940.953 64.5176 919.107 76.075C897.261 87.6325 903.983 73.3232 904.543 64.5176C905.103 55.7119 915.186 38.6509 910.705 35.3488C906.223 32.0467 901.742 43.0538 897.261 43.0538C892.78 43.0538 872.054 12.2339 878.776 51.3091C885.498 90.3842 869.813 87.0821 861.411 87.6325C853.009 88.1828 847.968 56.8126 846.847 35.3488C845.727 13.885 832.283 11.6835 825.001 15.536C817.719 19.3885 828.922 34.2481 827.802 43.0538C826.682 51.8594 813.238 48.5569 814.358 60.1147C815.479 71.6726 832.283 87.0821 832.283 95.8878C832.283 104.693 813.798 109.647 799.234 104.693C787.583 100.73 791.019 85.7976 794.193 78.8268C796.434 70.5715 797.554 53.5105 789.152 48.5569C780.749 43.6032 781.87 52.4098 778.509 56.8126C775.148 61.2155 771.787 60.1147 760.584 60.1147C749.381 60.1147 735.962 109.647 726.415 76.075C715.772 38.6509 704.569 38.6509 697.287 38.6509C690.005 38.6509 683.283 60.1147 677.681 60.1147C672.08 60.1147 657.516 54.0608 650.794 56.8126C644.072 59.5644 648.554 82.6793 644.633 87.0821C640.711 91.4849 621.666 78.8268 616.065 70.0211C610.463 61.2155 618.305 45.2552 616.065 38.6509C613.824 32.0467 602.061 33.1474 595.899 34.2481C589.738 35.3488 590.858 54.6112 584.696 56.8126C578.535 59.014 564.531 48.5569 555.568 48.5569C546.606 48.5569 548.847 71.1218 543.245 78.8268C537.643 86.5318 511.316 64.5176 505.155 60.1147C498.993 55.7119 485.549 42.503 468.745 48.5569C455.301 53.4 459.036 87.9989 462.583 104.693C457.542 125.056 430.655 113.61 423.933 109.647C415.53 104.693 423.933 75.5247 415.53 78.8268C407.128 82.1289 394.805 110.747 381.361 109.647C367.918 108.546 367.918 82.1289 366.797 72.7729C365.677 63.4169 384.162 48.5569 386.963 42.503C389.763 36.4491 384.162 32.5965 381.361 25.9928C379.121 20.7097 382.295 19.0218 384.162 18.8382C384.722 12.7843 389.203 3.51113 374.639 1.77668C337.669 -2.62616 333.748 12.2334 341.59 32.5965C349.433 52.9597 337.669 59.5639 333.748 59.5639C329.827 59.5639 307.981 30.3951 313.583 70.0206C319.184 109.646 309.662 103.042 301.82 104.693C293.978 106.344 265.97 65.6181 256.447 55.7114C246.925 45.8048 249.726 59.0136 236.842 48.5569C223.959 38.1001 218.917 38.6505 217.237 42.503C215.892 45.5849 220.038 59.1972 222.278 65.6181C221.905 69.654 218.245 75.3043 206.594 65.6181C192.03 53.5103 173.545 49.6578 172.425 65.6181C171.304 81.5783 211.075 127.808 211.075 136.063C211.075 144.319 203.233 149.272 193.15 145.97C183.067 142.668 177.466 142.117 169.624 149.272C161.782 156.427 188.109 178.441 177.466 186.146C166.823 193.851 151.699 174.038 143.857 175.689C136.015 177.34 137.135 186.146 131.534 192.2C125.932 198.254 113.049 183.394 107.447 186.146C101.846 188.898 109.688 204.307 104.086 212.563C98.4846 220.818 89.5222 210.912 83.3605 212.563C77.1988 214.214 81.68 232.926 75.5184 237.329C69.3567 241.732 53.1123 226.872 46.3905 232.926C39.6686 238.98 53.1123 247.235 71.0371 258.242C88.962 269.249 78.8793 274.753 75.5184 284.659C72.1575 294.566 35.7476 281.908 19.5032 281.908C3.25878 281.908 -0.662277 292.915 1.57833 305.573C3.81894 318.231 31.8265 308.875 46.3905 316.58C60.9544 324.285 42.4694 354.004 53.1123 357.306C63.7552 360.608 68.7965 350.152 78.8793 346.299C88.962 342.447 94.5635 351.252 113.049 350.152C131.534 349.051 141.616 322.634 157.3 331.439C172.985 340.245 167.383 351.803 177.466 363.36C187.549 374.917 200.432 373.266 211.075 363.36C221.718 353.453 214.436 329.788 241.883 328.137C269.331 326.486 254.767 342.446 259.248 363.36C263.729 384.273 290.617 397.482 309.102 403.536C327.258 409.482 365.95 443.038 376.344 452.052L376.88 452.517C386.403 460.773 387.523 489.391 419.452 485.539C451.38 481.686 454.741 489.391 457.542 500.398C460.343 511.405 443.538 537.822 442.978 543.326C442.418 548.83 446.899 558.736 454.741 554.883C462.583 551.031 460.903 533.97 477.147 532.319C493.392 530.668 496.752 542.225 514.677 571.944C532.602 601.663 551.647 671.008 568.452 767.871C585.256 864.733 539.324 968.2 509.076 1014.43Z" fill="url(#paint0_linear)" stroke="#9B7113"/>
<path d="M392.202 391.171C374.87 388.849 369.224 396.01 368.568 399.881C377.431 408.591 392.202 407.623 404.019 411.494C415.836 415.365 420.76 432.785 439.47 455.043C458.18 477.301 487.723 489.882 493.631 485.043C499.54 480.205 487.723 476.334 476.89 455.043C466.058 433.752 413.866 394.074 392.202 391.171Z" fill="#8EEABE"/>
<path d="M461.134 365.042C454.832 360.397 458.508 355.364 461.134 353.429C464.612 347.622 486.738 353.429 509.387 365.042C532.036 376.655 555.67 374.719 595.06 382.461C634.451 390.203 633.466 411.494 633.466 428.914C633.466 446.333 593.091 430.849 582.259 428.914C571.426 426.978 558.625 416.333 550.747 411.494C544.066 407.391 502.494 399.881 493.631 391.171C484.769 382.462 469.014 370.849 461.135 365.043L461.134 365.042Z" fill="#8EEABE"/>
<path d="M673.841 485.043C664.978 472.463 655.13 455.043 662.024 446.333C690.581 437.623 716.185 485.043 721.109 523.753C726.032 562.463 717.17 594.399 711.261 600.206C705.353 606.012 679.749 597.302 685.658 577.947C691.566 558.592 682.703 497.624 673.841 485.043Z" fill="#8EEABE"/>
<path d="M612.786 507.301C603.923 478.269 608.847 465.688 621.649 455.043C625.588 452.14 634.844 448.075 640.359 455.043C647.252 463.753 633.466 493.753 648.237 507.301C663.008 520.85 656.115 535.366 656.115 541.173C656.115 546.979 673.841 583.754 673.841 608.916C673.841 634.077 662.024 641.819 648.237 670.852C634.451 699.884 633.466 736.659 621.649 737.627C609.832 738.595 603.923 724.078 602.938 702.788C601.954 681.497 627.557 655.368 633.466 636.013C639.374 616.658 633.466 589.56 627.557 577.947C621.649 566.334 621.649 536.334 612.786 507.301Z" fill="#8EEABE"/>
<path d="M451.287 399.881C436.516 388.268 425.683 372.784 431.592 365.042C438.485 365.042 461.134 373.751 468.028 382.461C474.921 391.172 504.463 419.236 537.945 428.914C571.426 438.591 577.335 455.043 574.381 461.817C571.426 468.591 571.426 485.043 582.259 496.656C593.091 508.269 589.152 531.495 589.152 556.657C589.152 581.818 621.649 624.4 612.786 647.626C603.923 670.852 590.137 670.852 582.259 647.626C574.381 624.4 534.006 507.301 516.28 485.043C498.555 462.785 466.058 411.494 451.287 399.881Z" fill="#8EEABE"/>
<path d="M836.324 149.232C830.022 140.716 833.698 133.426 836.324 130.845C855.035 123.103 875.714 130.845 878.669 155.039C881.623 179.233 863.897 176.33 857.989 175.362C852.08 174.394 844.202 159.878 836.324 149.232Z" fill="#8EEABE"/>
<path d="M903.287 149.232C887.531 144.587 888.844 124.716 891.47 115.361C896.394 115.361 903.287 115.361 911.165 121.168C919.043 126.974 924.952 115.361 930.86 130.845C936.769 146.329 922.982 155.039 903.287 149.232Z" fill="#8EEABE"/>
<path d="M392.202 391.171C374.87 388.849 369.224 396.01 368.568 399.881C377.431 408.591 392.202 407.623 404.019 411.494C415.836 415.365 420.76 432.785 439.47 455.043C458.18 477.301 487.723 489.882 493.631 485.043C499.54 480.205 487.723 476.334 476.89 455.043C466.058 433.752 413.866 394.074 392.202 391.171Z" stroke="#9B7113"/>
<path d="M461.134 365.042C454.832 360.397 458.508 355.364 461.134 353.429C464.612 347.622 486.738 353.429 509.387 365.042C532.036 376.655 555.67 374.719 595.06 382.461C634.451 390.203 633.466 411.494 633.466 428.914C633.466 446.333 593.091 430.849 582.259 428.914C571.426 426.978 558.625 416.333 550.747 411.494C544.066 407.391 502.494 399.881 493.631 391.171C484.769 382.462 469.014 370.849 461.135 365.043L461.134 365.042Z" stroke="#9B7113"/>
<path d="M673.841 485.043C664.978 472.463 655.13 455.043 662.024 446.333C690.581 437.623 716.185 485.043 721.109 523.753C726.032 562.463 717.17 594.399 711.261 600.206C705.353 606.012 679.749 597.302 685.658 577.947C691.566 558.592 682.703 497.624 673.841 485.043Z" stroke="#9B7113"/>
<path d="M612.786 507.301C603.923 478.269 608.847 465.688 621.649 455.043C625.588 452.14 634.844 448.075 640.359 455.043C647.252 463.753 633.466 493.753 648.237 507.301C663.008 520.85 656.115 535.366 656.115 541.173C656.115 546.979 673.841 583.754 673.841 608.916C673.841 634.077 662.024 641.819 648.237 670.852C634.451 699.884 633.466 736.659 621.649 737.627C609.832 738.595 603.923 724.078 602.938 702.788C601.954 681.497 627.557 655.368 633.466 636.013C639.374 616.658 633.466 589.56 627.557 577.947C621.649 566.334 621.649 536.334 612.786 507.301Z" stroke="#9B7113"/>
<path d="M451.287 399.881C436.516 388.268 425.683 372.784 431.592 365.042C438.485 365.042 461.134 373.751 468.028 382.461C474.921 391.172 504.463 419.236 537.945 428.914C571.426 438.591 577.335 455.043 574.381 461.817C571.426 468.591 571.426 485.043 582.259 496.656C593.091 508.269 589.152 531.495 589.152 556.657C589.152 581.818 621.649 624.4 612.786 647.626C603.923 670.852 590.137 670.852 582.259 647.626C574.381 624.4 534.006 507.301 516.28 485.043C498.555 462.785 466.058 411.494 451.287 399.881Z" stroke="#9B7113"/>
<path d="M836.324 149.232C830.022 140.716 833.698 133.426 836.324 130.845C855.035 123.103 875.714 130.845 878.669 155.039C881.623 179.233 863.897 176.33 857.989 175.362C852.08 174.394 844.202 159.878 836.324 149.232Z" stroke="#9B7113"/>
<path d="M903.287 149.232C887.531 144.587 888.844 124.716 891.47 115.361C896.394 115.361 903.287 115.361 911.165 121.168C919.043 126.974 924.952 115.361 930.86 130.845C936.769 146.329 922.982 155.039 903.287 149.232Z" stroke="#9B7113"/>
<path d="M526.505 1023.41C502.307 1060.4 446.217 1089.46 421.197 1099.36C538.269 1103.58 676.066 1085.6 704.074 1081.2C662.622 1065.79 639.656 1044.88 623.412 1023.41C607.167 1001.95 623.972 950.218 634.055 928.204C644.137 906.189 667.104 875.92 679.427 847.852C691.75 819.784 695.671 766.95 695.111 752.64C694.551 738.331 699.032 700.357 704.074 676.141C709.115 651.926 742.724 633.764 753.367 623.307C764.01 612.85 757.288 597.991 756.168 584.782C755.047 571.574 759.529 558.916 764.01 551.761C768.491 544.606 790.337 568.272 802.66 568.272C814.984 568.272 808.262 547.358 811.623 541.304C814.984 535.25 828.427 554.513 842.431 551.761C856.435 549.009 849.153 538.552 851.954 531.948C854.754 525.344 872.679 535.25 879.961 535.801C887.243 536.351 891.164 534.15 894.525 527.545C897.886 520.941 885.563 513.236 872.679 514.887C859.796 516.538 853.074 508.833 847.472 504.981C841.871 501.128 850.833 484.618 847.472 480.215C844.111 475.812 836.83 480.765 831.228 480.215C825.626 479.665 834.029 473.611 817.784 469.208C801.54 464.805 803.781 450.496 808.262 439.489C812.743 428.482 834.029 419.676 834.029 410.32C834.029 400.964 820.025 399.863 811.623 405.367C803.22 410.87 790.337 426.28 774.653 439.489C758.968 452.697 738.803 439.489 739.923 426.28C741.044 413.072 756.168 414.172 782.495 391.057C808.822 367.943 823.946 370.144 842.431 376.748C860.916 383.353 844.111 405.367 842.431 414.172C840.751 422.978 858.675 428.482 856.995 439.489C855.315 450.496 863.157 459.301 872.679 450.496C882.202 441.69 898.446 442.791 902.927 450.496C907.409 458.201 875.48 478.564 898.446 484.618C921.412 490.672 936.536 479.114 944.379 474.711C952.221 470.309 961.183 444.992 980.228 459.301C999.273 473.611 984.71 501.679 980.228 515.988C975.747 530.297 941.018 529.196 936.536 542.405C932.055 555.614 942.138 554.513 956.702 567.721C971.266 580.93 973.507 591.387 989.191 591.387C1004.88 591.387 1011.6 567.721 1025.04 564.97C1038.48 562.218 1036.24 585.883 1047.45 591.387C1058.65 596.89 1061.45 578.178 1066.49 567.721C1071.53 557.265 1073.21 520.941 1087.78 509.934C1102.34 498.927 1118.03 496.175 1115.79 484.618C1113.54 473.06 1079.94 486.269 1091.7 466.456C1103.46 446.643 1100.1 435.086 1091.7 425.73C1083.3 416.374 1063.13 424.079 1059.21 422.978C1055.29 421.877 1059.21 415.823 1063.13 405.367C1066.27 397.001 1048.38 393.075 1039.04 392.158C1034.56 382.252 1085.29 376.748 1083.86 364.09C1083.3 359.137 1069.29 359.137 1061.45 364.09C1053.61 369.043 1043.53 369.043 1039.04 361.889C1034.56 354.734 1034 353.083 1025.04 354.184C1016.08 355.284 1008.24 354.734 1008.24 336.572C1008.24 318.411 1020 318.961 1043.53 310.155C1067.05 301.35 1062.57 291.994 1063.13 285.94C1063.69 279.886 1046.89 274.933 1043.53 269.429C1040.16 263.926 1048.01 251.818 1050.81 241.361C1053.61 230.904 1031.2 236.408 1025.04 235.307C1018.88 234.206 1020 223.199 1020 216.595C1020 209.991 1020 208.89 1008.24 206.689C996.473 204.487 981.349 179.171 1020 180.822C1058.65 182.473 1063.69 175.319 1059.21 161.56C1054.73 147.801 1027.28 151.103 1020 146.7C1012.72 142.297 1021.12 130.74 1013.28 126.887C1005.44 123.035 994.232 133.492 981.349 134.592C968.465 135.693 963.984 118.632 965.104 104.873C966.225 91.1143 1000.39 73.5029 1003.75 65.798C1007.12 58.093 1017.76 47.6363 1000.39 47.6363C983.029 47.6363 958.382 73.5029 936.536 85.0604C914.691 96.6178 921.412 82.3086 921.973 73.5029C922.533 64.6973 932.615 47.6363 928.134 44.3341C923.653 41.032 919.172 52.0391 914.691 52.0391C910.209 52.0391 889.484 21.2192 896.206 60.2944C902.927 99.3696 887.243 96.0675 878.841 96.6178C870.439 97.1682 865.397 65.798 864.277 44.3341C863.157 22.8703 849.713 20.6689 842.431 24.5214C835.149 28.3739 846.352 43.2334 845.232 52.0391C844.111 60.8448 830.668 57.5422 831.788 69.1001C832.908 80.658 849.713 96.0675 849.713 104.873C849.713 113.679 831.228 118.632 816.664 113.678C805.013 109.715 808.448 94.783 811.623 87.8121C813.863 79.5568 814.984 62.4958 806.581 57.5422C798.179 52.5886 799.299 61.3951 795.938 65.798C792.578 70.2008 789.217 69.1001 778.014 69.1001C766.811 69.1001 753.392 118.632 743.844 85.0604C733.201 47.6363 721.998 47.6363 714.716 47.6363C707.434 47.6363 700.713 69.1001 695.111 69.1001C689.51 69.1001 674.946 63.0462 668.224 65.798C661.502 68.5497 665.983 91.6646 662.062 96.0675C658.141 100.47 639.096 87.8121 633.494 79.0065C627.893 70.2008 635.735 54.2405 633.494 47.6363C631.254 41.032 619.491 42.1327 613.329 43.2334C607.167 44.3341 608.288 63.5965 602.126 65.798C595.964 67.9994 581.961 57.5422 572.998 57.5422C564.036 57.5422 566.276 80.1072 560.675 87.8121C555.073 95.5171 528.746 73.5029 522.584 69.1001C516.423 64.6973 502.979 51.4883 486.175 57.5422C472.731 62.3853 476.465 96.9843 480.013 113.678C474.971 134.041 448.084 122.595 441.362 118.632C432.96 113.678 441.362 84.51 432.96 87.8121C424.558 91.1143 412.235 119.733 398.791 118.632C385.347 117.531 385.347 91.1143 384.227 81.7582C383.107 72.4022 401.592 57.5422 404.392 51.4883C407.193 45.4344 401.592 41.5819 398.791 34.9781C396.55 29.6951 399.724 28.0071 401.592 27.8235C402.152 21.7696 406.633 12.4965 392.069 10.762C355.099 6.3592 351.178 21.2188 359.02 41.5819C366.862 61.945 355.099 68.5493 351.178 68.5493C347.257 68.5493 325.411 39.3805 331.013 79.006C336.614 118.632 327.091 112.027 319.249 113.678C311.407 115.329 283.4 74.6034 273.877 64.6968C264.354 54.7901 267.155 67.9989 254.272 57.5422C241.388 47.0855 236.347 47.6358 234.666 51.4883C233.322 54.5703 237.467 68.1825 239.708 74.6034C239.334 78.6393 235.675 84.2896 224.024 74.6034C209.46 62.4956 190.975 58.6431 189.854 74.6034C188.734 90.5637 228.505 136.793 228.505 145.049C228.505 153.304 220.663 158.257 210.58 154.955C200.497 151.653 194.896 151.103 187.054 158.257C179.211 165.412 205.539 187.426 194.896 195.131C184.253 202.836 169.129 183.023 161.287 184.674C153.444 186.325 154.565 195.131 148.963 201.185C143.362 207.239 130.478 192.379 124.877 195.131C119.275 197.883 127.117 213.293 121.516 221.548C115.914 229.803 106.952 219.897 100.79 221.548C94.6285 223.199 99.1097 241.911 92.9481 246.314C86.7864 250.717 70.542 235.857 63.8202 241.911C57.0983 247.965 70.542 256.221 88.4668 267.228C106.392 278.235 96.309 283.738 92.9481 293.645C89.5872 303.551 53.1773 290.893 36.9329 290.893C20.6885 290.893 16.7674 301.9 19.008 314.558C21.2486 327.216 49.2562 317.86 63.8202 325.565C78.3841 333.27 59.8991 362.989 70.542 366.292C81.1849 369.594 86.2262 359.137 96.309 355.284C106.392 351.432 111.993 360.238 130.478 359.137C148.963 358.036 159.046 331.619 174.73 340.425C190.414 349.231 184.813 360.788 194.896 372.345C204.978 383.902 217.862 382.252 228.505 372.345C239.148 362.438 231.866 338.774 259.313 337.122C286.761 335.471 272.197 351.432 276.678 372.345C281.159 393.259 308.046 406.467 326.531 412.521C344.688 418.467 383.379 452.023 393.773 461.037L394.31 461.503C403.832 469.758 404.953 498.377 436.881 494.524C468.81 490.672 472.171 498.377 474.971 509.384C477.772 520.391 460.968 546.808 460.408 552.311C459.847 557.815 464.329 567.721 472.171 563.869C480.013 560.016 478.332 542.955 494.577 541.304C510.821 539.653 514.182 551.21 532.107 580.93C550.032 610.649 569.077 679.993 585.882 776.856C602.686 873.718 556.754 977.185 526.505 1023.41Z" fill="url(#paint1_linear)" stroke="#9B7113"/>
<path d="M409.632 400.156C392.3 397.834 386.654 404.995 385.998 408.866C394.86 417.576 409.632 416.608 421.449 420.479C433.266 424.35 438.189 441.77 456.9 464.028C475.61 486.287 505.152 498.867 511.061 494.029C516.969 489.19 505.152 485.319 494.32 464.028C483.488 442.738 431.296 403.06 409.632 400.156Z" fill="#8EEABE"/>
<path d="M478.564 374.027C472.262 369.382 475.938 364.35 478.564 362.414C482.041 356.608 504.168 362.414 526.817 374.027C549.466 385.64 573.1 383.705 612.49 391.447C651.88 399.189 650.895 420.479 650.895 437.899C650.895 455.319 610.521 439.834 599.688 437.899C588.856 435.963 576.054 425.318 568.176 420.479C561.496 416.376 519.924 408.866 511.061 400.156C502.198 391.447 486.443 379.835 478.565 374.028L478.564 374.027Z" fill="#8EEABE"/>
<path d="M691.27 494.029C682.407 481.448 672.56 464.028 679.453 455.318C708.011 446.608 733.615 494.029 738.538 532.739C743.462 571.448 734.599 603.385 728.691 609.191C722.782 614.998 697.179 606.288 703.087 586.933C708.996 567.578 700.133 506.609 691.27 494.029Z" fill="#8EEABE"/>
<path d="M630.216 516.287C621.353 487.254 626.277 474.673 639.078 464.028C643.017 461.125 652.274 457.06 657.789 464.028C664.682 472.738 650.895 502.738 665.667 516.287C680.438 529.835 673.545 544.352 673.545 550.158C673.545 555.965 691.27 592.739 691.27 617.901C691.27 643.062 679.453 650.805 665.667 679.837C651.88 708.87 650.895 745.644 639.078 746.612C627.261 747.58 621.353 733.064 620.368 711.773C619.383 690.482 644.987 664.353 650.895 644.998C656.804 625.643 650.895 598.546 644.987 586.933C639.078 575.32 639.078 545.319 630.216 516.287Z" fill="#8EEABE"/>
<path d="M468.717 408.866C453.945 397.253 443.113 381.769 449.022 374.027C455.915 374.027 478.564 382.737 485.457 391.447C492.351 400.157 521.893 428.221 555.375 437.899C588.856 447.577 594.765 464.028 591.81 470.802C588.856 477.576 588.856 494.029 599.688 505.641C610.521 517.254 606.582 540.481 606.582 565.642C606.582 590.804 639.078 633.385 630.216 656.611C621.353 679.837 607.566 679.837 599.688 656.611C591.81 633.385 551.436 516.287 533.71 494.029C515.985 471.771 483.488 420.479 468.717 408.866Z" fill="#8EEABE"/>
<path d="M853.754 158.218C847.452 149.702 851.128 142.411 853.754 139.83C872.464 132.088 893.144 139.83 896.098 164.024C899.053 188.218 881.327 185.315 875.419 184.347C869.51 183.379 861.632 168.863 853.754 158.218Z" fill="#8EEABE"/>
<path d="M920.717 158.218C904.961 153.573 906.274 133.702 908.9 124.347C913.824 124.347 920.717 124.347 928.595 130.153C936.473 135.96 942.382 124.347 948.29 139.83C954.199 155.314 940.412 164.024 920.717 158.218Z" fill="#8EEABE"/>
<path d="M409.632 400.156C392.3 397.834 386.654 404.995 385.998 408.866C394.86 417.576 409.632 416.608 421.449 420.479C433.266 424.35 438.189 441.77 456.9 464.028C475.61 486.287 505.152 498.867 511.061 494.029C516.969 489.19 505.152 485.319 494.32 464.028C483.488 442.738 431.296 403.06 409.632 400.156Z" stroke="#9B7113"/>
<path d="M478.564 374.027C472.262 369.382 475.938 364.35 478.564 362.414C482.041 356.608 504.168 362.414 526.817 374.027C549.466 385.64 573.1 383.705 612.49 391.447C651.88 399.189 650.895 420.479 650.895 437.899C650.895 455.319 610.521 439.834 599.688 437.899C588.856 435.963 576.054 425.318 568.176 420.479C561.496 416.376 519.924 408.866 511.061 400.156C502.198 391.447 486.443 379.835 478.565 374.028L478.564 374.027Z" stroke="#9B7113"/>
<path d="M691.27 494.029C682.407 481.448 672.56 464.028 679.453 455.318C708.011 446.608 733.615 494.029 738.538 532.739C743.462 571.448 734.599 603.385 728.691 609.191C722.782 614.998 697.179 606.288 703.087 586.933C708.996 567.578 700.133 506.609 691.27 494.029Z" stroke="#9B7113"/>
<path d="M630.216 516.287C621.353 487.254 626.277 474.673 639.078 464.028C643.017 461.125 652.274 457.06 657.789 464.028C664.682 472.738 650.895 502.738 665.667 516.287C680.438 529.835 673.545 544.352 673.545 550.158C673.545 555.965 691.27 592.739 691.27 617.901C691.27 643.062 679.453 650.805 665.667 679.837C651.88 708.87 650.895 745.644 639.078 746.612C627.261 747.58 621.353 733.064 620.368 711.773C619.383 690.482 644.987 664.353 650.895 644.998C656.804 625.643 650.895 598.546 644.987 586.933C639.078 575.32 639.078 545.319 630.216 516.287Z" stroke="#9B7113"/>
<path d="M468.717 408.866C453.945 397.253 443.113 381.769 449.022 374.027C455.915 374.027 478.564 382.737 485.457 391.447C492.351 400.157 521.893 428.221 555.375 437.899C588.856 447.577 594.765 464.028 591.81 470.802C588.856 477.576 588.856 494.029 599.688 505.641C610.521 517.254 606.582 540.481 606.582 565.642C606.582 590.804 639.078 633.385 630.216 656.611C621.353 679.837 607.566 679.837 599.688 656.611C591.81 633.385 551.436 516.287 533.71 494.029C515.985 471.771 483.488 420.479 468.717 408.866Z" stroke="#9B7113"/>
<path d="M853.754 158.218C847.452 149.702 851.128 142.411 853.754 139.83C872.464 132.088 893.144 139.83 896.098 164.024C899.053 188.218 881.327 185.315 875.419 184.347C869.51 183.379 861.632 168.863 853.754 158.218Z" stroke="#9B7113"/>
<path d="M920.717 158.218C904.961 153.573 906.274 133.702 908.9 124.347C913.824 124.347 920.717 124.347 928.595 130.153C936.473 135.96 942.382 124.347 948.29 139.83C954.199 155.314 940.412 164.024 920.717 158.218Z" stroke="#9B7113"/>
<path d="M634.5 732.5C626.5 741.3 622.333 726.333 621 719C621 723.5 622 736.6 628 743C635.5 751 641 747.5 644.5 745C647.3 743 651.5 727.167 653 720.5C654 713 660.471 696.5 662 690C664 681.5 676 660 683 649C690 638 689.5 632 691.5 621C693.5 610 686 589 686 586.5C686 584.5 681.5 568.333 678.5 561C675.5 553.667 673.386 547.5 675 540.5C676.011 536.115 669 559.5 669 575C669 590.5 677.5 617.5 674.5 630C671.5 642.5 657.5 668.5 652 681.5C646.5 694.5 644.5 721.5 634.5 732.5Z" fill="#DEB75E" stroke="#9B7113"/>
<path d="M596 646C594.4 637.2 565.833 564.167 551.5 528C605 653.5 609 659 616 660C623 661 625 648.5 623.5 636.5C622 624.5 604 594 598.5 584C593 574 604 548.5 604 539C604 529.5 595 515 591 489.5C594 504 606.5 508.5 611.5 519C616.5 529.5 609 569.5 609 576.5C609 583.5 631.5 629.5 632.5 646C633.5 662.5 622 672.5 616 674C610 675.5 606 670 604 668C602 666 598 657 596 646Z" fill="#DEB75E" stroke="#9B7113"/>
<path d="M559.5 410.5C553.1 410.1 522.833 402 508.5 398C514.5 406.5 557 418.5 566.5 422C576 425.5 571.5 424 585 432C598.5 440 596.5 437.5 603 439C606.268 439.754 623 445 636.5 446.5C650 448 651.143 443 652 439C653.5 432 652 427 652 423.5C652 420 649.5 415 646 409C643.375 404.5 639.167 402.5 636.5 400.5C636 402.167 635.3 407.4 636.5 415C638 424.5 624.5 424 605.5 422C586.5 420 567.5 411 559.5 410.5Z" fill="#DEB75E" stroke="#9B7113"/>
<path d="M931.5 153.5C929.5 155 919 153 909.5 147.5C911 155 917.5 162 936 160.5C954.5 159 950.5 145 950.5 142C950.5 139 945.5 133 943 132C941.5 133 940.5 139.5 939.5 145C938.5 150.5 933.5 152 931.5 153.5Z" fill="#DEB559" stroke="#9B7113"/>
<path d="M702.5 596C704.5 600 716.9 606.5 722.5 600.5C729.5 593 732.5 557 732.5 544C732.5 531 727 509.5 722.5 500.5C718.088 491.676 708.107 465.069 701.869 459.319C701.747 459.214 701.624 459.108 701.5 459C701.621 459.098 701.744 459.204 701.869 459.319C713.119 468.992 718.608 468.79 728.5 495.5C738.5 522.5 743 544 740 564.5C737 585 738 608.5 728.5 610.5L728.389 610.523C718.911 612.519 707.481 614.926 702.5 596Z" fill="#DEB75E" stroke="#9B7113"/>
<path d="M502 490C499.2 490.8 469.667 472 455.5 462.5C481 494 504.5 497 509.5 496C514.5 495 513 486.5 509.5 484C506 481.5 503 476.5 493.5 462.5C496.5 471.5 505.5 489 502 490Z" fill="#DEB75E" stroke="#9B7113"/>
<path d="M877.5 176.5C871.5 179.7 863 170.833 859 166C870 191 886.5 186.5 891.5 185C896.5 183.5 897.5 176.5 899 171.5C900.5 166.5 896.5 156.5 892.5 151.5C892.5 159.5 893.5 159.5 891.5 166C889.5 172.5 885 172.5 877.5 176.5Z" fill="#DEB559" stroke="#9B7113"/>
<defs>
<linearGradient id="paint0_linear" x1="1280.39" y1="-418.37" x2="-204.19" y2="804.824" gradientUnits="userSpaceOnUse">
<stop stop-color="#DEB14D"/>
<stop offset="1" stop-color="#DEBC70"/>
</linearGradient>
<linearGradient id="paint1_linear" x1="1297.82" y1="-409.385" x2="-186.76" y2="813.809" gradientUnits="userSpaceOnUse">
<stop stop-color="#ECC367"/>
<stop offset="1" stop-color="#DEBC70"/>
</linearGradient>
</defs>
</svg>
